#define test_width 10
#define test_height 10

static unsigned char test_bits[] = {
 0x20, 0x00, 0x20, 0x00, 0x70, 0x00, 0x70, 0x00, 0xf8, 0x00, 0xf8, 0x00,
 0xdc, 0x01, 0x8c, 0x01, 0x8e, 0x03, 0x02, 0x02 };
